# xmcd
#
# Track frame offsets:
#	150
#	21419
#	45859
#	69274
#	84815
#	109310
#	132750
#	156656
#	187999
#	206025
#	233124
#	250326
#	272525
#	308623
#	325558
#
# Disc length: 4680 seconds
#
# Revision: 0
# Processed by: cddbd v1.5.2PL0 Copyright (c) Steve Scherf et al.
# Submitted via: EasyCDDAExtractor 16.0.5.1
#
DISCID=bf12460f
DTITLE=Hamburg Blues Band - Friends For A LIVEtime Vol.1
DYEAR=2013
DGENRE=Blues
TTITLE0=Hynotized feat. Dick Heckstall Smith
TTITLE1=Waiting For The Wind/LIVE feat. Mike Harrison
TTITLE2=On Your Way Down feat. Dick Heckstall-Smith
TTITLE3=Wishing Well feat. Maggie Bell
TTITLE4=Inner City Blues/LIVE feat. Dick Heckstall Smith
TTITLE5=Superstition/LIVE feat. Inga Rumpf
TTITLE6=When A Blind Man Cries/LIVE feat. Miller Anderson
TTITLE7=The Old Soulsinger/LIVE feat. Pete Brown
TTITLE8=Get Off My Back/LIVE feat. Micky Moody
TTITLE9=Help The Poor/LIVE feat. Geoff Whitehorn
TTITLE10=Done Somebody Wrong/LIVE feat. Clem Clempson
TTITLE11=Rockin' Chair feat. The HBB
TTITLE12=Stormy Monday Blues/LIVE feat. Chris Farlowe
TTITLE13=It Should've Been Me/LIVE feat. Zoot Money
TTITLE14=Fire/LIVE feat. Arthur Brown
EXTD=
EXTT0=
EXTT1=
EXTT2=
EXTT3=
EXTT4=
EXTT5=
EXTT6=
EXTT7=
EXTT8=
EXTT9=
EXTT10=
EXTT11=
EXTT12=
EXTT13=
EXTT14=
PLAYORDER=
